<svg xmlns="http://www.w3.org/2000/svg" width="64" height="64" viewBox="0 0 64 64"><!-- TEMPORARY GENERATED UPGRADE ICON: replace with individually authored art when available. --><g><g><path d="M32 8 C22 14 18 24 20 35 C22 43 28 49 32 52 C36 49 42 43 44 35 C46 24 42 14 32 8 Z" fill="#a53030" stroke="#10141f" stroke-width="4" stroke-linecap="round" stroke-linejoin="round"/><path d="M20 34 L12 42 L23 43 M44 34 L52 42 L41 43" fill="#a53030" stroke="#10141f" stroke-width="3" stroke-linecap="round" stroke-linejoin="round"/><circle cx="32" cy="28" r="6" fill="#da863e" stroke="#10141f" stroke-width="3"/><path d="M26 48 C24 53 27 57 32 60 C37 57 40 53 38 48" fill="#da863e" stroke="#10141f" stroke-width="2.5" stroke-linecap="round" stroke-linejoin="round"/></g><g><circle cx="50" cy="14" r="8.5" fill="#241527" stroke="#10141f" stroke-width="3.2" stroke-linecap="round" stroke-linejoin="round"/><g stroke="#10141f" fill="#da863e" stroke-width="1.5" stroke-linecap="round" stroke-linejoin="round"><path d="M50 6 L52 11 L57 9 L54 14 L58 18 L52 17 L50 22 L48 17 L42 18 L46 14 L43 9 L48 11 Z"/></g></g><g><circle cx="51" cy="50" r="8.5" fill="#241527" stroke="#10141f" stroke-width="3.2" stroke-linecap="round" stroke-linejoin="round"/><g stroke="#10141f" fill="#da863e" stroke-width="1.5" stroke-linecap="round" stroke-linejoin="round"><path d="M51 42 L53 48 L59 47 L54 52 L58 57 L52 54 L48 59 L49 53 L43 54 L48 49 L44 44 L50 47 Z"/></g></g></g></svg>
