<svg xmlns="http://www.w3.org/2000/svg" width="64" height="64" viewBox="0 0 64 64"><!-- TEMPORARY GENERATED UPGRADE ICON: replace with individually authored art when available. --><g><g><path d="M10 29 H45 L55 25 V32 L45 36 H32 L28 49 H21 L24 36 H15 L11 42 H7 Z" fill="#73bed3" stroke="#10141f" stroke-width="4" stroke-linecap="round" stroke-linejoin="round"/><rect x="28" y="18" width="17" height="8" rx="3" fill="#ebede9" stroke="#10141f" stroke-width="2.5" stroke-linecap="round" stroke-linejoin="round"/><circle cx="37" cy="22" r="2.5" fill="#172038"/><path d="M46 29 H58" fill="none" stroke="#ebede9" stroke-width="4" stroke-linecap="round" stroke-linejoin="round"/></g><g><circle cx="50" cy="14" r="8.5" fill="#172038" stroke="#10141f" stroke-width="3.2" stroke-linecap="round" stroke-linejoin="round"/><g stroke="#10141f" fill="#ebede9" stroke-width="1.5" stroke-linecap="round" stroke-linejoin="round"><path d="M43 10 H52 M43 18 H52" fill="none" stroke="#ebede9" stroke-width="2" stroke-linecap="round" stroke-linejoin="round"/><polyline points="59,7 56,10 59,13" fill="none"/><polyline points="59,15 56,18 59,21" fill="none"/></g></g><g><circle cx="51" cy="50" r="8.5" fill="#172038" stroke="#10141f" stroke-width="3.2" stroke-linecap="round" stroke-linejoin="round"/><g stroke="#10141f" fill="#ebede9" stroke-width="1.5" stroke-linecap="round" stroke-linejoin="round"><circle cx="51" cy="50" r="5" fill="none"/><path d="M51 42 V45 M51 55 V58 M43 50 H46 M56 50 H59" fill="none" stroke="#ebede9" stroke-width="2" stroke-linecap="round" stroke-linejoin="round"/></g></g></g></svg>
