<svg xmlns="http://www.w3.org/2000/svg" width="64" height="64" viewBox="0 0 64 64"><!-- TEMPORARY GENERATED UPGRADE ICON: replace with individually authored art when available. --><g><g><path d="M10 38 C10 22 20 12 32 12 C44 12 54 22 54 38" fill="#172038" stroke="#10141f" stroke-width="4"/><path d="M16 38 C16 25 23 18 32 18 C41 18 48 25 48 38" fill="#73bed3" stroke="#ebede9" stroke-width="3"/><path d="M12 43 H52" fill="none" stroke="#ebede9" stroke-width="3" stroke-linecap="round" stroke-linejoin="round"/></g><path d="M16 38 C16 23 23 15 32 15 C41 15 48 23 48 38" fill="none" stroke="#ebede9" stroke-width="3.5"/><path d="M12 43 H52" fill="none" stroke="#10141f" stroke-width="3" stroke-linecap="round" stroke-linejoin="round"/><g><circle cx="51" cy="50" r="8.5" fill="#172038" stroke="#10141f" stroke-width="3.2" stroke-linecap="round" stroke-linejoin="round"/><g stroke="#10141f" fill="#ebede9" stroke-width="1.5" stroke-linecap="round" stroke-linejoin="round"><path d="M45 45 L50 50 L45 55 M57 45 L52 50 L57 55" fill="none" stroke="#ebede9" stroke-width="2.2" stroke-linecap="round" stroke-linejoin="round"/></g></g></g></svg>
